GIL11_fast2_RRA_states
nRows=4
nColumns=47

# SIMM Motion File Header:
name GIL11_fast2_RRA_states
datacolumns 47
datarows 4
otherdata 1
range 0.48300000000000032000 0.48450000000000032000
endheader
time	pelvis_tx	pelvis_ty	pelvis_tz	pelvis_tilt	pelvis_list	pelvis_rotation	hip_flexion_r	hip_adduction_r	hip_rotation_r	knee_angle_r	ankle_angle_r	subtalar_angle_r	mtp_angle_r	hip_flexion_l	hip_adduction_l	hip_rotation_l	knee_angle_l	ankle_angle_l	subtalar_angle_l	mtp_angle_l	lumbar_extension	lumbar_bending	lumbar_rotation	pelvis_tx_u	pelvis_ty_u	pelvis_tz_u	pelvis_tilt_u	pelvis_list_u	pelvis_rotation_u	hip_flexion_r_u	hip_adduction_r_u	hip_rotation_r_u	knee_angle_r_u	ankle_angle_r_u	subtalar_angle_r_u	mtp_angle_r_u	hip_flexion_l_u	hip_adduction_l_u	hip_rotation_l_u	knee_angle_l_u	ankle_angle_l_u	subtalar_angle_l_u	mtp_angle_l_u	lumbar_extension_u	lumbar_bending_u	lumbar_rotation_u
      0.48300000000000032000	      1.88534528529018600000	      0.83431514825144781000	     -0.23192461844647350000	     -4.51595323176880910000	      3.78895872868986180000	     -1.94936573446993240000	    -17.33368382151424600000	     -3.79752770040897400000	      1.10068759434562220000	    -17.27472964612141500000	     -6.48846823363456600000	     -0.00000000000015132256	     -0.00000000000016029768	     31.21078671687541100000	      2.98480939895963670000	      7.74099188553182850000	    -15.63567321938070300000	     -4.36000499671474010000	     -0.00000000000000590670	      0.00000000000000728236	     -3.80640291807880390000	     -6.73591685654524590000	      8.05233180094838020000	      1.86428173480322120000	     -0.02299171189678275700	     -0.11494337017275422000	     10.27900306451963700000	     23.79242486324704600000	      6.40258053130310860000	     36.16857594535841300000	    -58.80459182069187600000	    -25.37333712614981000000	   -250.81451026614860000000	   -359.19510292155809000000	     -0.00000000000141883677	     -0.00000000000029396470	     -7.04888310683788430000	     70.76470741345767100000	     98.18085951135753900000	   -212.79671645499576000000	    -37.68132807235006300000	     -0.00000000000010708726	      0.00000000000009627546	      9.51645641819866480000	    -22.43593884092743100000	    -18.94388079355963200000
      0.48350000000000032000	      1.88627732274995650000	      0.83430418852112709000	     -0.23198241966787778000	     -4.51087691776583630000	      3.80094746625266830000	     -1.94606414980205720000	    -17.31524062710724000000	     -3.82702995035752110000	      1.08804195224884540000	    -17.40043154750350500000	     -6.66864028797853250000	     -0.00000000000015202766	     -0.00000000000016045519	     31.20731103557270100000	      3.02035044795165940000	      7.79009686826593930000	    -15.74225562500599900000	     -4.37843198234613060000	     -0.00000000000000596087	      0.00000000000000733211	     -3.80160914298000520000	     -6.74720657500874580000	      8.04282243157332740000	      1.86386442347012940000	     -0.02085134053338968600	     -0.11626012661801191000	     10.02650268836234000000	     24.16327586976394000000	      6.80369388516284520000	     37.60464081875573300000	    -59.20516691676379400000	    -25.20978018434427500000	   -251.99425833824282000000	   -361.48302199679875000000	     -0.00000000000142070302	     -0.00000000000028508496	     -6.85580611729162030000	     71.39988103995939600000	     98.23651875963645400000	   -213.52622560560548000000	    -36.02438109178572000000	     -0.00000000000010426662	      0.00000000000011122981	      9.65783590914394270000	    -22.72395691927102100000	    -19.09283003860318200000
      0.48400000000000032000	      1.88720914613895860000	      0.83429429274806421000	     -0.23204087709948659000	     -4.50592642828609690000	      3.81312271137485310000	     -1.94256219314606130000	    -17.29607885213085800000	     -3.85673361795380830000	      1.07547736933787520000	    -17.52672482483992400000	     -6.84994220786934440000	     -0.00000000000015273988	     -0.00000000000016060111	     31.20392883211641400000	      3.05620961697176390000	      7.83922564698149230000	    -15.84919284864317200000	     -4.39602517472686930000	     -0.00000000000000600570	      0.00000000000000738647	     -3.79674592748751840000	     -6.75864178377183490000	      8.03323982920969650000	      1.86342566303191370000	     -0.01873594820008803500	     -0.11756804086004326000	      9.77580673670024680000	     24.53836827804563100000	      7.20389284245991400000	     39.04267607321253300000	    -59.61024530965222100000	    -25.04889276331271100000	   -253.17952887341883000000	   -363.71662331300888000000	     -0.00000000000143288408	     -0.00000000000032120416	     -6.67519988325634280000	     72.03707664989038100000	     98.27563632245255600000	   -214.21615419217210000000	    -34.34222888935706000000	     -0.00000000000007571081	      0.00000000000009007827	      9.79414377502373770000	    -23.01779765289837300000	    -19.23663088792550400000
      0.48450000000000032000	      1.88814074483622290000	      0.83428544827063000000	     -0.23209998615781027000	     -4.50110078432772290000	      3.82548651898117420000	     -1.93886042009157360000	    -17.27619767830096700000	     -3.88664092980831600000	      1.06299262509472790000	    -17.65361197280258300000	     -7.03234773090842770000	     -0.00000000000015345293	     -0.00000000000016075882	     31.20063370427448000000	      3.09238783615394160000	      7.88836972995507060000	    -15.95646520338759600000	     -4.41277007011065870000	     -0.00000000000000603579	      0.00000000000000743079	     -3.79181587276421840000	     -6.77022532633944160000	      8.02358662293770840000	      1.86296544083463230000	     -0.01664637163617944300	     -0.11886664929655361000	      9.52707048682998090000	     24.91756853801549500000	      7.60311408268549550000	     40.48234655889655200000	    -60.01972900667803400000	    -24.89061285905078300000	   -254.37017939459398000000	   -365.89510652511615000000	     -0.00000000000142383525	     -0.00000000000030235314	     -6.50738081165604680000	     72.67614251707927100000	     98.29810654046232800000	   -214.86662432302245000000	    -32.63524594629047500000	     -0.00000000000003516180	      0.00000000000009343405	      9.92521066139311790000	    -23.31736201396575900000	    -19.37549975490713500000
